# xmcd CD database file
#
# Track frame offsets:
#	150
#	17398
#	33062
#	53924
#	77887
#	94240
#	111746
#	135172
#	152538
#	172363
#	192216
#
# Disc length: 2953 seconds
#
# Revision: 1
# Processed by: cddbd v1.4PL0 Copyright (c) Steve Scherf et al.
# Submitted via: CDex 1.40Release
#
DISCID=870b870b
DTITLE=Richard Boals - That's The Truth
DYEAR=2000
DGENRE=Blues
TTITLE0=Leave Me Alone
TTITLE1=Ain't Doing Nothing Wrong
TTITLE2=No Turning Back
TTITLE3=Tacos For Two
TTITLE4=Two Timin' Baby
TTITLE5=Got My Eyes On You
TTITLE6=Silver Spoon
TTITLE7=It's My Baby At The Door
TTITLE8=The Night Is Still
TTITLE9=I Need Some Money
TTITLE10=Your Love Is Killing Me
EXTD=YEAR: 2000 ID3G: 0
EXTT0=
EXTT1=
EXTT2=
EXTT3=
EXTT4=
EXTT5=
EXTT6=
EXTT7=
EXTT8=
EXTT9=
EXTT10=
PLAYORDER=
